<?xml version="1.0" encoding="UTF-8"?> <svg xmlns="http://www.w3.org/2000/svg" xmlns:xlink="http://www.w3.org/1999/xlink" width="385px" height="100px" viewBox="0 0 385 100" version="1.1"><!-- Generator: Sketch 52.6 (67491) - http://www.bohemiancoding.com/sketch --><title>19_BCI_LOGO_PRIMARY_RGB_FULL_COLOR_NEGATIVE</title><desc>Created with Sketch.</desc><g id="Page-1" stroke="none" stroke-width="1" fill="none" fill-rule="evenodd"><g id="19_BCI_LOGO_PRIMARY_RGB_FULL_COLOR_NEGATIVE" transform="translate(-1.000000, 0.000000)"><g id="Group" transform="translate(125.000000, 23.000000)" fill="#FFFFFF"><path d="M0.22,19.81 L0.22,0.92 L6.27,0.92 C7.62,0.92 8.62,1 9.28,1.15 C11.42,1.64 13.21,3.29 13.21,5.85 C13.21,7.46 12.44,8.89 11.01,9.68 C13.08,10.39 14.12,11.9 14.12,14.07 C14.12,15.88 13.35,17.54 11.92,18.54 C10.44,19.59 9.47,19.82 6.48,19.82 L0.22,19.82 L0.22,19.81 Z M6.75,8.1 C7.95,8.1 8.59,7.59 8.59,6.59 C8.59,5.59 7.98,5.16 6.78,5.16 L4.84,5.16 L4.84,8.1 L6.75,8.1 Z M7.31,15.58 C8.66,15.58 9.51,14.99 9.51,13.77 C9.51,12.67 8.77,12.14 7.34,12.14 L4.84,12.14 L4.84,15.59 L7.31,15.59 L7.31,15.58 Z" id="Shape" fill-rule="nonzero"></path><path d="M28.86,19.81 L27.94,17.08 L21.38,17.08 L20.38,19.81 L15.2,19.81 L22.78,0.92 L26.58,0.92 L34.09,19.81 L28.86,19.81 Z M24.72,6.82 L24.64,6.79 L22.7,13.25 L26.66,13.25 L24.72,6.82 Z" id="Shape" fill-rule="nonzero"></path><polygon id="Path" points="37.46 19.81 37.46 5.16 33.73 5.16 33.73 0.92 45.98 0.92 45.98 5.16 42.28 5.16 42.28 19.81"></polygon><path d="M70.52,8.1 C69.7,6.03 67.92,4.81 65.95,4.81 C62.94,4.81 60.9,7.39 60.9,10.32 C60.9,13.38 62.99,15.94 65.98,15.94 C67.89,15.94 69.53,14.87 70.52,12.75 L75.57,12.75 C74.4,17.29 70.49,20.18 66.02,20.18 C63.39,20.18 60.91,19.26 58.97,17.35 C56.93,15.36 56.06,12.96 56.06,10.1 C56.06,5.1 60.37,0.58 65.79,0.58 C68.39,0.58 70.49,1.29 72.38,2.9 C74.17,4.43 75.24,6.17 75.57,8.11 L70.52,8.11 L70.52,8.1 Z" id="Path"></path><path d="M78.38,10.8 C78.38,4.95 82.59,0.56 88.34,0.56 C93.85,0.56 98.32,4.82 98.32,10.23 C98.32,15.82 93.98,20.16 88.57,20.16 C83.31,20.17 78.38,16.39 78.38,10.8 Z M93.49,10.39 C93.49,7.43 91.37,4.8 88.33,4.8 C85.32,4.8 83.2,7.33 83.2,10.31 C83.2,13.42 85.32,15.93 88.41,15.93 C91.4,15.93 93.49,13.41 93.49,10.39 Z" id="Shape" fill-rule="nonzero"></path><polygon id="Path" points="113.27 19.81 106.02 8.27 106.15 19.81 101.53 19.81 101.53 0.92 105.69 0.92 113.04 12.87 112.84 0.92 117.46 0.92 117.46 19.81"></polygon><path d="M128.82,6.44 C128.62,5.09 128.05,4.6 127.11,4.6 C126.22,4.6 125.45,5.24 125.45,6.08 C125.45,7.2 126.47,7.71 128.54,8.61 C132.7,10.4 133.75,11.9 133.75,14.38 C133.75,18.03 131.25,20.17 127.16,20.17 C123.05,20.17 120.34,18.03 120.34,13.97 L120.34,13.56 L125.14,13.56 C125.17,15.12 125.93,16.14 127.13,16.14 C128.13,16.14 128.94,15.35 128.94,14.33 C128.94,12.82 126.85,12.16 125.14,11.47 C122.05,10.22 120.65,8.59 120.65,6.14 C120.65,2.92 123.76,0.57 127.24,0.57 C128.49,0.57 129.59,0.85 130.58,1.36 C132.6,2.41 133.57,3.91 133.59,6.44 L128.82,6.44 Z" id="Path"></path><polygon id="Path" points="136.56 19.81 136.56 0.92 147.05 0.92 147.05 5.16 141.18 5.16 141.18 8.1 146.87 8.1 146.87 12.34 141.18 12.34 141.18 15.58 147.05 15.58 147.05 19.82 136.56 19.82"></polygon><path d="M159.38,19.81 L155.01,13.71 L154.96,13.71 L154.96,19.81 L150.34,19.81 L150.34,0.92 L156.52,0.92 C158.49,0.92 159.99,1.17 160.99,1.61 C163.03,2.53 164.46,4.75 164.46,7.43 C164.46,10.42 162.67,12.87 159.76,13.38 L164.89,19.81 L159.38,19.81 Z M156.75,10.42 C158.67,10.42 159.84,9.53 159.84,7.71 C159.84,6.08 158.61,5.16 156.8,5.16 L154.96,5.16 L154.96,10.42 L156.75,10.42 Z" id="Shape" fill-rule="nonzero"></path><polygon id="Path" points="172.27 19.81 165.96 0.92 170.91 0.92 174.71 14.17 174.76 14.17 178.59 0.92 183.57 0.92 177.24 19.81"></polygon><path d="M193.94,19.81 L193.02,17.08 L186.46,17.08 L185.46,19.81 L180.28,19.81 L187.86,0.92 L191.66,0.92 L199.17,19.81 L193.94,19.81 Z M189.8,6.82 L189.72,6.79 L187.78,13.25 L191.74,13.25 L189.8,6.82 Z" id="Shape" fill-rule="nonzero"></path><polygon id="Path" points="202.24 19.81 202.24 5.16 198.51 5.16 198.51 0.92 210.76 0.92 210.76 5.16 207.06 5.16 207.06 19.81"></polygon><polygon id="Path" points="213.83 19.81 213.83 0.92 218.65 0.92 218.65 19.81"></polygon><path d="M221.56,10.8 C221.56,4.95 225.77,0.56 231.52,0.56 C237.03,0.56 241.5,4.82 241.5,10.23 C241.5,15.82 237.16,20.16 231.75,20.16 C226.49,20.17 221.56,16.39 221.56,10.8 Z M236.67,10.39 C236.67,7.43 234.55,4.8 231.51,4.8 C228.5,4.8 226.38,7.33 226.38,10.31 C226.38,13.42 228.5,15.93 231.59,15.93 C234.58,15.93 236.67,13.41 236.67,10.39 Z" id="Shape" fill-rule="nonzero"></path><polygon id="Path" points="255.84 19.81 248.59 8.27 248.72 19.81 244.1 19.81 244.1 0.92 248.26 0.92 255.61 12.87 255.41 0.92 260.03 0.92 260.03 19.81"></polygon><polygon id="Path" points="0.22 53.28 0.22 29.14 2.63 29.14 2.63 53.28"></polygon><polygon id="Path" points="25.6 53.28 11.28 32.04 11.21 32.04 11.21 53.28 8.8 53.28 8.8 29.14 12.06 29.14 25.53 49.17 25.59 49.17 25.59 29.14 28 29.14 28 53.28"></polygon><polygon id="Path" points="38.84 53.28 38.84 31.32 33.29 31.32 33.29 29.13 46.76 29.13 46.76 31.32 41.25 31.32 41.25 53.28"></polygon><polygon id="Path" points="51.5 53.28 51.5 29.14 64.71 29.14 64.71 31.33 53.91 31.33 53.91 40.01 64.35 40.01 64.35 42.2 53.91 42.2 53.91 51.11 64.71 51.11 64.71 53.3 51.5 53.3"></polygon><path d="M83.92,53.28 L75.73,42.35 L78.08,42.35 C82.35,42.35 84.9,40.16 84.9,36.87 C84.9,34.59 83.5,31.32 77.95,31.32 L73.35,31.32 L73.35,53.28 L70.94,53.28 L70.94,29.14 L78.21,29.14 C84.51,29.14 87.31,32.86 87.31,36.94 C87.31,40.86 84.37,43.95 80.13,44.28 L86.95,53.28 L83.92,53.28 Z" id="Path"></path><polygon id="Path" points="109.66 53.28 95.34 32.04 95.27 32.04 95.27 53.28 92.86 53.28 92.86 29.14 96.12 29.14 109.59 49.17 109.65 49.17 109.65 29.14 112.06 29.14 112.06 53.28"></polygon><path d="M136.6,53.28 L133.11,45.16 L121.89,45.16 L118.37,53.28 L115.86,53.28 L126.17,29.14 L128.88,29.14 L139.25,53.28 L136.6,53.28 Z M127.53,31.88 L122.8,42.97 L132.16,42.97 L127.53,31.88 Z" id="Shape" fill-rule="nonzero"></path><polygon id="Path" points="144.65 53.28 144.65 31.32 139.1 31.32 139.1 29.13 152.57 29.13 152.57 31.32 147.06 31.32 147.06 53.28"></polygon><polygon id="Path" points="157.64 53.28 157.64 29.14 160.05 29.14 160.05 53.28"></polygon><path d="M178.38,53.71 C171.79,53.71 165.62,48.36 165.62,41.35 C165.62,34.4 171.3,28.73 178.38,28.73 C185.39,28.73 191.17,34.34 191.17,41.23 C191.17,48.03 185.4,53.71 178.38,53.71 Z M178.35,30.9 C172.64,30.9 168.04,35.73 168.04,41.34 C168.04,46.79 172.77,51.52 178.38,51.52 C184.15,51.52 188.75,46.79 188.75,41.24 C188.76,35.67 184.16,30.9 178.35,30.9 Z" id="Shape" fill-rule="nonzero"></path><polygon id="Path" points="213.51 53.28 199.19 32.04 199.12 32.04 199.12 53.28 196.71 53.28 196.71 29.14 199.97 29.14 213.44 49.17 213.5 49.17 213.5 29.14 215.91 29.14 215.91 53.28"></polygon><path d="M240.55,53.28 L237.06,45.16 L225.84,45.16 L222.32,53.28 L219.81,53.28 L230.12,29.14 L232.83,29.14 L243.2,53.28 L240.55,53.28 Z M231.48,31.88 L226.75,42.97 L236.11,42.97 L231.48,31.88 Z" id="Shape" fill-rule="nonzero"></path><polygon id="Path" points="247.53 53.28 247.53 29.14 249.94 29.14 249.94 51.1 259.92 51.1 259.92 53.29 247.53 53.29"></polygon></g><path d="M88.18,0.13 L85.71,2.6 C97.79,14.77 105.26,31.51 105.26,49.97 C105.26,68.45 97.77,85.21 85.67,97.39 L88.14,99.86 C100.87,87.05 108.76,69.42 108.76,49.97 C108.76,30.55 100.89,12.94 88.18,0.13 Z" id="Path" fill="#21A6B5"></path><path d="M80.85,7.46 L78.38,9.93 C88.58,20.22 94.89,34.37 94.89,49.97 C94.89,65.59 88.56,79.76 78.34,90.05 L80.81,92.52 C91.67,81.59 98.39,66.55 98.39,49.96 C98.38,33.41 91.68,18.39 80.85,7.46 Z" id="Path" fill="#21A6B5"></path><path d="M73.75,14.57 L71.28,17.04 C79.66,25.51 84.84,37.15 84.84,49.98 C84.84,62.83 79.64,74.49 71.24,82.96 L73.71,85.43 C82.75,76.32 88.34,63.79 88.34,49.98 C88.34,36.19 82.76,23.67 73.75,14.57 Z" id="Path" fill="#21A6B5"></path><path d="M68.1,68.33 C67.79,68.01 67.55,67.8 67.29,67.58 L65.79,66.33 C64.65,65.4 63.5,64.48 62.39,63.51 C61.29,62.53 60.21,61.57 58.83,61.01 C58.38,60.83 57.92,60.69 57.45,60.59 C57.14,60.52 56.83,60.48 56.52,60.45 L56.27,57.78 L56.25,57.54 C56.23,57.3 56.13,56.95 55.96,56.7 C55.68,56.28 55.27,55.96 54.78,55.84 C54.19,55.69 53.62,55.88 53.08,56.12 C51.76,56.72 50.56,57.59 49.58,58.67 C48.99,59.32 48.46,60.03 48,60.77 C47.4,61.76 46.91,62.74 46.5,63.83 C45.49,63.95 44.57,64.14 43.61,64.35 C42.38,64.63 41.17,64.97 39.98,65.36 C37.6,66.14 35.29,67.11 33.06,68.21 C31.59,68.97 30.13,69.77 28.72,70.64 C27.35,71.48 26,72.39 24.72,73.36 C23.49,74.29 22.32,75.31 21.17,76.34 C20.92,76.57 20.42,76.9 20.72,77.29 C20.89,77.5 21.21,77.55 21.43,77.39 L21.46,77.37 C22.46,76.67 23.45,75.95 24.45,75.27 C24.5,75.24 24.54,75.21 24.59,75.18 C25.54,74.54 26.5,73.89 27.51,73.33 C28.9,72.47 30.34,71.69 31.8,70.96 C33.26,70.24 34.75,69.59 36.27,69.01 C37.02,68.72 37.78,68.45 38.55,68.2 C40.11,67.68 41.7,67.26 43.31,66.94 C44.58,66.69 45.88,66.48 47.18,66.41 C48.13,66.38 48.72,66.51 48.72,66.51 C48.72,66.51 48.56,66.37 48.71,65.61 L48.77,65.43 C49.12,64.39 49.7,63.23 50.34,62.26 C51,61.27 51.78,60.39 52.66,59.7 C52.95,59.47 53.25,59.28 53.56,59.1 C53.56,59.1 53.81,61.29 53.81,61.29 C53.81,61.29 53.99,63.34 53.99,63.34 C53.99,63.32 54.68,63.26 54.71,63.26 C55.45,63.21 56.16,63.18 56.89,63.36 C57.42,63.49 57.92,63.69 58.38,63.97 C59.01,64.35 59.54,64.85 60.07,65.36 C60.61,65.88 61.17,66.37 61.74,66.87 C62.44,67.48 63.15,68.08 63.85,68.68 L64.92,69.61 C64.82,69.66 64.71,69.72 64.6,69.77 C64.11,70 63.57,70.2 63.02,70.37 C61.92,70.71 60.75,70.93 59.57,71.08 C57.89,71.29 56.18,71.32 54.49,71.25 C54.02,71.23 53.56,71.2 53.09,71.17 C52.65,71.13 52.19,71.03 51.75,71.15 C51.36,71.26 51.01,71.49 50.69,71.74 C49.39,72.73 48.06,73.7 46.65,74.52 C45.23,75.35 43.75,76.08 42.24,76.71 C40.74,77.34 39.19,77.86 37.63,78.31 C36.05,78.76 34.41,79.17 32.78,79.4 C31.08,79.64 29.37,79.85 27.66,80.03 C27.23,80.08 26.81,80.12 26.38,80.16 C25.98,80.2 25.6,80.26 25.21,80.32 C24.37,80.44 23.54,80.57 22.71,80.71 C21.05,81 19.39,81.34 17.75,81.75 C17.36,81.85 16.96,81.95 16.57,82.06 C13.72,82.82 10.98,83.81 8.26,84.76 C9.34,83.5 10.33,82.18 11.24,80.76 C12.83,78.21 14.16,75.33 14.41,72.08 C14.53,70.47 14.32,68.78 13.72,67.23 C13.13,65.67 12.19,64.27 11.07,63.11 C9.29,61.27 7.18,59.96 5,58.91 C5.89,57.38 6.63,55.84 7.29,54.2 C8.16,51.98 8.81,49.65 9.1,47.22 C9.37,44.8 9.27,42.27 8.58,39.85 C8.04,37.86 7.07,36 5.84,34.37 C6.79,33.1 7.58,31.8 8.29,30.38 C9.18,28.58 9.88,26.64 10.21,24.57 C10.52,22.51 10.46,20.3 9.78,18.24 C9.54,17.46 9.22,16.72 8.83,16.02 C8.91,16.04 9,16.06 9.08,16.08 C10.35,16.41 11.62,16.86 12.86,17.39 C15.34,18.47 17.73,19.83 20.01,21.38 C24.57,24.48 28.77,28.2 32.67,32.19 C35.73,35.3 38.59,38.6 41.35,42 C40.34,41.39 39.32,40.81 38.28,40.26 C35.68,38.88 32.97,37.73 30.23,36.73 C27.47,35.76 24.63,35.03 21.75,34.52 C18.87,34.03 15.98,33.73 13.03,33.87 C12.84,33.88 12.68,34.04 12.68,34.23 C12.68,34.43 12.84,34.6 13.07,34.6 C15.88,34.64 18.73,35.12 21.49,35.78 C24.25,36.46 26.96,37.34 29.56,38.45 C31.48,39.27 33.39,40.26 35.23,41.28 C37.1,42.32 38.85,43.42 40.61,44.68 C40.8,44.82 40.98,44.96 41.17,45.1 C39.81,45.31 38.46,45.54 37.11,45.81 C34.1,46.44 31.12,47.24 28.2,48.17 C25.28,49.13 22.42,50.24 19.63,51.51 C16.85,52.8 14.13,54.2 11.57,55.92 C11.43,56.01 11.38,56.19 11.45,56.34 C11.53,56.51 11.73,56.59 11.92,56.51 C14.67,55.29 17.48,54.19 20.32,53.22 C23.16,52.23 26.03,51.36 28.92,50.58 C31.82,49.83 34.73,49.15 37.67,48.62 C39.14,48.35 40.61,48.11 42.09,47.91 L43.63,47.72 C43.23,49.01 42.91,50.33 42.69,51.67 C42.44,53.13 42.35,54.63 42.46,56.12 C42.53,56.87 42.63,57.61 42.85,58.35 C43.07,59.09 43.31,59.77 43.83,60.48 C43.97,60.67 44.23,60.73 44.44,60.62 C44.67,60.5 44.76,60.21 44.63,59.98 L44.59,59.91 C44.54,59.75 44.44,59.6 44.38,59.43 C44.31,59.24 44.26,59.05 44.21,58.86 C44.11,58.46 44.06,58.05 44.02,57.65 C43.95,56.81 43.98,55.97 44.08,55.13 C44.09,55.05 44.1,54.96 44.11,54.88 C44.34,53.25 44.84,51.65 45.44,50.12 C45.68,49.52 45.94,48.92 46.22,48.34 C46.54,47.66 46.92,46.99 47.08,46.25 C47.19,45.75 47.19,45.21 47,44.73 C46.75,44.08 46.22,43.55 45.81,43.01 C45.31,42.36 44.81,41.72 44.3,41.07 C43.28,39.78 42.25,38.51 41.2,37.25 C40.15,35.99 39.08,34.75 37.98,33.52 C36.94,32.36 35.88,31.23 34.8,30.11 C30.83,25.98 26.53,22.11 21.75,18.8 C19.36,17.15 16.82,15.67 14.12,14.47 C12.65,13.82 11.13,13.28 9.57,12.89 C8.16,12.56 6.74,12.25 5.28,12.36 C4.7,12.4 4.1,12.57 3.78,13.1 C3.52,13.54 3.49,14.1 3.7,14.57 C3.82,14.83 4.05,15.04 4.24,15.26 C5.3,16.32 6.18,17.71 6.64,19.14 C6.65,19.18 6.66,19.21 6.67,19.25 C7.18,20.77 7.23,22.43 6.99,24.08 C6.72,25.73 6.14,27.38 5.37,28.94 C4.6,30.49 3.59,32.05 2.52,33.33 C2.01,33.94 2,34.84 2.54,35.46 C3.88,37.01 4.9,38.79 5.44,40.75 C6,42.7 6.09,44.79 5.86,46.87 C5.61,48.95 5.05,51.03 4.26,53.03 C3.67,54.53 2.98,56.05 2.12,57.42 C1.9,57.77 1.68,58.12 1.47,58.48 C1.28,58.8 1.06,59.09 1.01,59.47 C0.94,60.06 1.21,60.66 1.7,60.99 C1.81,61.06 1.92,61.12 2.04,61.17 C4.63,62.13 7.11,63.39 8.98,65.19 C10.86,66.97 11.91,69.37 11.79,71.97 C11.7,74.56 10.65,77.19 9.26,79.6 C7.86,82 6.07,84.29 4.13,86.26 C3.88,86.5 3.76,86.87 3.86,87.23 C4,87.76 4.55,88.08 5.08,87.94 C9.21,86.84 13.15,85.44 17.18,84.55 C21.2,83.6 25.3,83.07 29.43,82.79 C33.71,82.55 38.05,81.74 42.19,80.34 C44.25,79.61 46.27,78.75 48.22,77.71 C49.19,77.19 50.14,76.62 51.07,76 C51.54,75.69 51.99,75.37 52.44,75.03 C52.6,74.91 52.74,74.79 52.89,74.67 C55.25,74.8 57.63,74.75 60.01,74.41 C61.35,74.21 62.69,73.93 64.01,73.49 C64.67,73.27 65.33,73.01 65.99,72.69 C66.74,72.32 67.49,71.87 68.08,71.27 C68.36,70.98 68.59,70.64 68.7,70.26 C68.88,69.5 68.58,68.85 68.1,68.33 Z" id="Path" fill="#FFFFFF"></path></g></g></svg> 