<svg xmlns="http://www.w3.org/2000/svg" viewBox="0 0 221.25 42.48"><defs><style>.cls-1{fill:#d7282f;}.cls-2{fill:#53575a;}</style></defs><title>Asset 1</title><g id="Layer_2" data-name="Layer 2"><g id="Layer_1-2" data-name="Layer 1"><path class="cls-1" d="M23.17,33.41C16.84,29.66,8.7,31.17,4.35,28.57c-1.86-1.1-2.3-2.24-2-3.3h-2A21,21,0,0,0,20.87,42.48a20.58,20.58,0,0,0,5.53-.78c.83-3,.41-6.14-3.23-8.29M7.9,21H0c0,.07,0,.14,0,.21,0,.65,0,1.29.1,1.92h4A17.08,17.08,0,0,1,7.9,21m13.41-8.34c-.55.62-1.11,1.29-1.68,2,0,0-.12.15-.25.36-.33.53-.75,1.7,1.44,2.45a15.81,15.81,0,0,0,3.91.68h.07l1.14.05H26l1.18,0h.11l1.16,0h.21l1,0,.48,0,.57,0,4.08-.23c2.25-.13,4.51-.22,6.63-.15,0,0,0,0,0-.05h0a19.15,19.15,0,0,0-1.2-4.37h0a59.06,59.06,0,0,1-10,.52h-.11l-.26,0a9.59,9.59,0,0,1-3.45-1c-1.21-.65-1.76-1.31-1.9-1.95l0-.18v-.05A2.35,2.35,0,0,1,25,9.21l0,0L25.18,9l.11-.13a6.69,6.69,0,0,1,.53-.54H4.34a19.36,19.36,0,0,0-1.42,2.14h20.5c-.61.6-1.29,1.3-2,2.1H1.84A19.47,19.47,0,0,0,1,14.68H16.46c2.18-1.38,4.81-2.25,4.85-2M32.38,5l-1.71,2.1c-.09.11-1.58,1.83,1.14,2.58a19.41,19.41,0,0,0,6.7.22,21.09,21.09,0,0,0-5.38-5.83H8.61A21.69,21.69,0,0,0,6.13,6.2H29C31,5.23,32.69,4.71,32.38,5M20.87,0a20.38,20.38,0,0,0-8.72,2H29.6a20.46,20.46,0,0,0-8.73-2M41.64,23.32v0c-7-2.35-20.1.69-25.81-2.39-.16-.08-.3-.17-.44-.25l-.11-.07L15,20.41l-.12-.09-.21-.16-.11-.1-.18-.16-.08-.09a1.14,1.14,0,0,1-.15-.17l-.07-.08L14,19.38s0-.05-.05-.06a2.12,2.12,0,0,1-.11-.21s0,0,0,0a1.28,1.28,0,0,1-.09-.22v0a2.31,2.31,0,0,1,.39-2H.47a18.87,18.87,0,0,0-.33,2.13H11.52a40.8,40.8,0,0,0-3,3.53l0,0-.13.17c-.32.44-1,1.67,1.16,2.53a12,12,0,0,0,1.32.43C18,27.53,33.4,26.07,40,29.83v0h0a21.13,21.13,0,0,0,1.55-5.41c.05-.35.1-.72.14-1.08Z"/><path class="cls-2" d="M59.48,22.41h3.77v3.34a7.3,7.3,0,0,1-1.93,1,8,8,0,0,1-2.48.38,6.27,6.27,0,0,1-2.57-.5A5.94,5.94,0,0,1,53,23.15a7.62,7.62,0,0,1-.45-2.66v0A7,7,0,0,1,53,17.91a6.68,6.68,0,0,1,1.27-2.08,6.2,6.2,0,0,1,1.9-1.41,5.4,5.4,0,0,1,2.36-.53,9.1,9.1,0,0,1,1.61.14,8.42,8.42,0,0,1,1.34.4,7.61,7.61,0,0,1,1.16.62c.37.25.74.53,1.1.83l.11.1,2.3-2.74-.12-.1A13.89,13.89,0,0,0,64.55,12a9.16,9.16,0,0,0-1.67-.8,10.11,10.11,0,0,0-1.9-.51,13.3,13.3,0,0,0-2.29-.18,9.79,9.79,0,0,0-7.14,3,9.7,9.7,0,0,0-2.06,3.17,10.07,10.07,0,0,0-.74,3.82v.05a10.38,10.38,0,0,0,.72,3.91,9.2,9.2,0,0,0,5.16,5.22,10.79,10.79,0,0,0,4.09.76,11.72,11.72,0,0,0,2.41-.24,11.19,11.19,0,0,0,2.15-.64,12.09,12.09,0,0,0,1.86-1,13.24,13.24,0,0,0,1.57-1.14l.06-.05V19.22H58.35Z"/><path class="cls-2" d="M75.35,16.17a6.26,6.26,0,0,0-1.68,2v-2.7h-3.6V30.09h3.6V24.51A7.75,7.75,0,0,1,74,22.08a4.63,4.63,0,0,1,1-1.72,4,4,0,0,1,1.49-1A5.33,5.33,0,0,1,78.39,19h.34V15.25h-.14a4.74,4.74,0,0,0-3.24.92"/><path class="cls-2" d="M90.25,23.71a3.5,3.5,0,0,1-.84,2.5,2.9,2.9,0,0,1-2.2.88,2.67,2.67,0,0,1-2.13-.85,3.66,3.66,0,0,1-.76-2.48V15.52H80.73v9.23a6,6,0,0,0,1.36,4.1A4.88,4.88,0,0,0,86,30.39a4.66,4.66,0,0,0,2.78-.78,6.77,6.77,0,0,0,1.52-1.45v1.93h3.6V15.52h-3.6Z"/><path class="cls-2" d="M110.27,17.19a6.33,6.33,0,0,0-2.17-1.47,6.54,6.54,0,0,0-2.51-.5,5.36,5.36,0,0,0-3,.79,7.39,7.39,0,0,0-1.71,1.59V15.52h-3.6v18.9h3.6V28.15a8,8,0,0,0,1.69,1.46,5.36,5.36,0,0,0,3,.78,6.56,6.56,0,0,0,2.53-.5,6.38,6.38,0,0,0,2.18-1.46,7.21,7.21,0,0,0,1.52-2.38,8.69,8.69,0,0,0,.56-3.22v0a8.3,8.3,0,0,0-.58-3.22,7.08,7.08,0,0,0-1.53-2.37m-5.42,1.16a3.7,3.7,0,0,1,1.52.32,3.55,3.55,0,0,1,1.25.88,4.38,4.38,0,0,1,.85,1.4,5.09,5.09,0,0,1,.32,1.83v0a5.22,5.22,0,0,1-.32,1.86,4.07,4.07,0,0,1-.85,1.38,3.83,3.83,0,0,1-1.25.88,4,4,0,0,1-3.06,0,3.83,3.83,0,0,1-1.28-.89,4.51,4.51,0,0,1-.88-1.4,5.09,5.09,0,0,1-.32-1.83v0a5,5,0,0,1,.32-1.82,4.89,4.89,0,0,1,.88-1.4,3.69,3.69,0,0,1,1.28-.89,3.83,3.83,0,0,1,1.54-.32"/><path class="cls-2" d="M127.09,17.44a7.72,7.72,0,0,0-2.45-1.63,8.11,8.11,0,0,0-3.1-.59A7.82,7.82,0,0,0,116,17.47a7.57,7.57,0,0,0-1.62,2.41,7.31,7.31,0,0,0-.6,2.95v.06a7.61,7.61,0,0,0,.58,2.92,7.27,7.27,0,0,0,1.62,2.4,7.81,7.81,0,0,0,2.45,1.62,8.28,8.28,0,0,0,6.19,0,7.67,7.67,0,0,0,2.47-1.64,7.83,7.83,0,0,0,1.63-2.41,7.45,7.45,0,0,0,.59-2.93v0a7.56,7.56,0,0,0-.58-2.94,7.48,7.48,0,0,0-1.62-2.4m-5.55,9.84a3.82,3.82,0,0,1-1.67-.35,4.12,4.12,0,0,1-1.33-1,4.68,4.68,0,0,1-.87-1.42,4.61,4.61,0,0,1-.31-1.72v0a5.15,5.15,0,0,1,.28-1.71,4,4,0,0,1,.83-1.4,4.11,4.11,0,0,1,1.32-.94,4.28,4.28,0,0,1,3.39,0,4.41,4.41,0,0,1,1.33.95,4.56,4.56,0,0,1,.87,1.42,4.74,4.74,0,0,1,.31,1.73v.06a5,5,0,0,1-.28,1.69,4.19,4.19,0,0,1-.83,1.4,4.12,4.12,0,0,1-1.31.95,4,4,0,0,1-1.73.35"/><polygon class="cls-2" points="141.8 19.69 136.12 10.86 132.35 10.86 132.35 30.09 135.94 30.09 135.94 16.91 141.64 25.44 141.91 25.44 147.66 16.85 147.66 30.09 151.26 30.09 151.26 10.86 147.49 10.86 141.8 19.69"/><polygon class="cls-2" points="182.39 15.52 178.54 15.52 175.31 20.11 172.13 15.58 172.09 15.52 168.16 15.52 173.32 22.7 167.96 30.09 171.82 30.09 175.23 25.2 178.67 30.09 182.61 30.09 177.23 22.61 182.39 15.52"/><rect class="cls-2" x="184.34" y="15.52" width="3.6" height="14.58"/><rect class="cls-2" x="184.3" y="9.82" width="3.7" height="3.4"/><path class="cls-2" d="M220.67,19.84a7.48,7.48,0,0,0-1.62-2.4,7.56,7.56,0,0,0-2.45-1.63,8.11,8.11,0,0,0-3.1-.59,7.69,7.69,0,0,0-3.1.61,7.54,7.54,0,0,0-4.08,4,7.27,7.27,0,0,0-.6,2.95v.06a7.57,7.57,0,0,0,.58,2.92,7.37,7.37,0,0,0,1.62,2.4,7.7,7.7,0,0,0,2.45,1.62,8.28,8.28,0,0,0,6.19,0A7.67,7.67,0,0,0,219,28.17a7.8,7.8,0,0,0,1.62-2.41,7.28,7.28,0,0,0,.6-2.93v0a7.56,7.56,0,0,0-.58-2.94m-7.17,7.44a3.89,3.89,0,0,1-1.68-.35,4.19,4.19,0,0,1-1.32-1,4.49,4.49,0,0,1-.87-1.42,4.61,4.61,0,0,1-.31-1.72v0a5.15,5.15,0,0,1,.28-1.71,4,4,0,0,1,.83-1.4,4.34,4.34,0,0,1,1.31-.94,4.1,4.1,0,0,1,1.7-.35,4,4,0,0,1,1.7.35,4.25,4.25,0,0,1,1.33.95,4.56,4.56,0,0,1,.87,1.42,4.74,4.74,0,0,1,.31,1.73v.06a4.77,4.77,0,0,1-.29,1.69,4,4,0,0,1-.82,1.4,4.05,4.05,0,0,1-1.32.95,4,4,0,0,1-1.72.35"/><polygon class="cls-2" points="159.11 13.61 161.99 13.61 165.39 10.47 161.19 10.47 159.11 13.61"/><path class="cls-2" d="M200.16,26a3.84,3.84,0,0,1-1.24.95,3.58,3.58,0,0,1-1.63.35,3.46,3.46,0,0,1-1.58-.35,3.77,3.77,0,0,1-1.25-1,4.36,4.36,0,0,1-.82-1.42,4.82,4.82,0,0,1-.3-1.72v0a5.42,5.42,0,0,1,.27-1.71,4.06,4.06,0,0,1,.78-1.4,4.15,4.15,0,0,1,1.24-.94,3.69,3.69,0,0,1,1.61-.35,3.62,3.62,0,0,1,1.6.35,3.91,3.91,0,0,1,1.25.95,4.08,4.08,0,0,1,.54.81h3.66a6.15,6.15,0,0,0-.22-.65,7.51,7.51,0,0,0-1.53-2.4,7.15,7.15,0,0,0-2.32-1.63,7.27,7.27,0,0,0-2.93-.59,6.93,6.93,0,0,0-2.93.61A7,7,0,0,0,192,17.47a7.53,7.53,0,0,0-1.54,2.41,7.78,7.78,0,0,0-.56,2.95v.06a7.93,7.93,0,0,0,.54,2.92,7.57,7.57,0,0,0,1.53,2.4,7.29,7.29,0,0,0,10.51,0,7.76,7.76,0,0,0,1.54-2.41,6.71,6.71,0,0,0,.26-.83h-3.51a4.31,4.31,0,0,1-.65,1.05"/><path class="cls-2" d="M163.49,26a3.56,3.56,0,0,1-1.19,1,3.4,3.4,0,0,1-1.55.34,3.29,3.29,0,0,1-1.51-.34,3.75,3.75,0,0,1-1.2-1,4.59,4.59,0,0,1-.8-1.42,6.36,6.36,0,0,1-.2-.78h10.7a7.3,7.3,0,0,0,.06-.94v0a8.16,8.16,0,0,0-.53-2.94,7.64,7.64,0,0,0-1.46-2.39,7,7,0,0,0-2.24-1.64,6.78,6.78,0,0,0-2.82-.59,6.51,6.51,0,0,0-2.83.61,7.17,7.17,0,0,0-2.24,1.64,7.7,7.7,0,0,0-1.47,2.42,8,8,0,0,0-.54,2.94v.06a8.16,8.16,0,0,0,.52,2.92,7.6,7.6,0,0,0,1.47,2.4,7.18,7.18,0,0,0,2.23,1.62,7,7,0,0,0,5.65,0,7.06,7.06,0,0,0,2.24-1.64,7.71,7.71,0,0,0,1.47-2.4h-3.61l-.15.21m-6.27-4.92a4.22,4.22,0,0,1,.75-1.39,3.9,3.9,0,0,1,1.19-.94,3.42,3.42,0,0,1,1.54-.35,3.38,3.38,0,0,1,1.53.35,3.8,3.8,0,0,1,1.2.95,4.45,4.45,0,0,1,.79,1.42,1.42,1.42,0,0,1,.07.22h-7.14c0-.09,0-.17.07-.26"/></g></g></svg>