<?xml version="1.0" encoding="UTF-8" standalone="no"?>
<!-- Created with Inkscape (http://www.inkscape.org/) -->

<svg
   xmlns:dc="http://purl.org/dc/elements/1.1/"
   xmlns:cc="http://creativecommons.org/ns#"
   xmlns:rdf="http://www.w3.org/1999/02/22-rdf-syntax-ns#"
   xmlns:svg="http://www.w3.org/2000/svg"
   xmlns="http://www.w3.org/2000/svg"
   xmlns:sodipodi="http://sodipodi.sourceforge.net/DTD/sodipodi-0.dtd"
   xmlns:inkscape="http://www.inkscape.org/namespaces/inkscape"
   width="410"
   height="410"
   id="svg27183"
   version="1.1"
   inkscape:version="0.48.1 "
   sodipodi:docname="brain.svg">
  <defs
     id="defs27185" />
  <sodipodi:namedview
     id="base"
     pagecolor="#ffffff"
     bordercolor="#666666"
     borderopacity="1.0"
     inkscape:pageopacity="0.0"
     inkscape:pageshadow="2"
     inkscape:zoom="0.0875"
     inkscape:cx="-1024.3588"
     inkscape:cy="1788.4748"
     inkscape:document-units="px"
     inkscape:current-layer="layer1"
     showgrid="false"
     inkscape:window-width="1366"
     inkscape:window-height="706"
     inkscape:window-x="-8"
     inkscape:window-y="-8"
     inkscape:window-maximized="1" />
  <metadata
     id="metadata27188">
    <rdf:RDF>
      <cc:Work
         rdf:about="">
        <dc:format>image/svg+xml</dc:format>
        <dc:type
           rdf:resource="http://purl.org/dc/dcmitype/StillImage" />
        <dc:title></dc:title>
      </cc:Work>
    </rdf:RDF>
  </metadata>
  <g
     inkscape:label="Layer 1"
     inkscape:groupmode="layer"
     id="layer1"
     transform="translate(0,-642.36218)">
    <path
       inkscape:connector-curvature="0"
       id="path3000"
       d="m 140.16595,1046.6344 c 8.7892,-2.2892 15.3739,-9.1587 17.1983,-17.9421 0.9898,-4.7651 0.3538,-8.3794 -3.2457,-18.4455 -8.1193,-22.70543 -14.1619,-45.75263 -16.383,-62.48693 -1.5695,-11.825 -0.9612,-25.1289 1.3585,-29.7093 l 0.9401,-1.8563 28.4785,0 28.4785,0 0.7787,1.8563 c 1.6439,3.9189 2.2711,9.8442 1.9779,18.6868 -0.5844,17.6304 -5.1386,37.5898 -15.952,69.91233 -4.2264,12.6331 -4.6756,14.3284 -4.6756,17.6446 0,20.5855 24.532,30.7157 39.1107,16.1504 3.5115,-3.5084 4.6207,-5.891 9.3807,-20.1512 13.1132,-39.28473 18.3551,-64.24743 18.3254,-87.26873 -0.013,-10.1363 -1.1268,-18.0293 -3.7894,-26.8545 l -1.3067,-4.3314 -72.4538,0 -72.453702,0 -0.5216,1.3613 c -1.1188,2.9197 -2.9529,10.5151 -3.7355,15.4692 -0.9867,6.246 -1.0981,21.8937 -0.2116,29.7008 2.2907,20.172 7.3912,41.362 16.670002,69.25493 2.5727,7.7335 5.3922,15.4186 6.2657,17.0779 4.9953,9.4893 15.8476,14.5148 25.7656,11.9314 z m 42.7885,0.4148 4.0819,-0.3178 -1.9153,-1.4085 c -5.1913,-3.8177 -9.961,-13.1968 -9.961,-19.5871 0,-1.9352 -0.1098,-2.1236 -1.2375,-2.1236 l -1.2376,0 0,-40.82943 0,-40.8295 11.5091,-0.1329 11.5091,-0.1329 -0.035,-9.1577 c -0.026,-6.9635 -0.2161,-9.6322 -0.7923,-11.1378 l -0.7579,-1.9801 -25.6887,0 -25.6887,0 -0.6499,1.9801 c -0.9425,2.8714 -1.6169,11.7245 -1.254,16.4592 l 0.313,4.0838 8.0948,0 8.0947,0 0,32.5152 0,32.51503 2.0399,5.9309 c 2.461,7.155 2.9539,12.0786 1.7298,17.2794 -1.3841,5.8806 -5.1552,12.057 -9.1399,14.9698 -1.1174,0.8168 -2.0369,1.6521 -2.0434,1.8563 -0.014,0.4521 27.326,0.4915 33.0285,0.047 z m -113.228798,-5.7403 c 0.013,-17.5726 3.2939,-87.28183 5.9489,-126.40513 0.537796,-7.9246 0.977796,-14.9971 0.977796,-15.7167 l 0,-1.3083 128.456002,0 128.4561,0 0,1.6088 c 0,0.8849 0.3311,6.6208 0.7336,12.7466 1.102,16.7699 4.1035,70.871 4.6961,84.6474 0.4083,9.49043 1.4676,43.63073 1.4937,48.13993 0,0.8044 1.0004,0.8663 13.937,0.8663 l 13.9319,0 -0.3325,-13.2416 c -0.4952,-19.7207 -1.2265,-38.92163 -2.0221,-53.09013 -0.3898,-6.9426 -0.8417,-15.5187 -1.0041,-19.0581 -0.7744,-16.8817 -2.9788,-54.7431 -3.4801,-59.7729 l -0.2837,-2.8463 8.4298,0 c 9.9671,0 11.4867,-0.4035 13.5625,-3.6016 l 1.357,-2.091 -0.1412,-16.583 -0.141,-16.583 -1.1896,-1.5853 c -2.5459,-3.3931 13.2151,-3.1173 -178.158,-3.1173 l -173.139798,0 -2.1974,1.1138 c -1.3013,0.6596 -2.6057,1.8203 -3.1987,2.8463 -0.9482,1.6406 -1.0014,2.5739 -1.0014,17.573 0,17.7773 0.068,18.1677 3.5529,20.5431 1.7477,1.191 2.1542,1.2433 10.8239,1.3912 l 9.008,0.1537 -0.1921,2.0739 c -0.2342,2.5297 -2.8416,46.9205 -3.858,65.6831 -1.5773,29.1157 -2.7288,58.79623 -2.7415,70.66313 l -0.01,9.529 13.8604,0 13.8604,0 0,-4.5789 z m 44.223498,-0.145 c -0.1612,-0.4202 -0.3993,-0.6578 -0.529,-0.528 -0.1298,0.1298 -0.089,0.4735 0.09,0.7639 0.488,0.7897 0.7733,0.6363 0.4386,-0.2359 z m 32.9951,-191.95723 c 0,-1.1477 -0.014,-1.1502 -5.4061,-0.928 -7.5401,0.3106 -24.5295,-1.174 -30.4559,-2.6614 -1.2318,-0.3092 -1.264,-0.2528 -1.264,2.2115 l 0,2.5287 18.563,0 18.563,0 z m 70.292,-20.3823 c 0,-11.8432 0.1191,-21.5331 0.2647,-21.5331 0.1456,0 1.9834,1.4157 4.0839,3.1459 8.1933,6.7491 18.1599,13.0376 27.6264,17.4313 4.3794,2.0327 4.656,2.2502 4.656,3.6623 l 0,1.5012 50.2471,0 50.2471,0 -0.127,-36.0122 -0.127,-36.0123 -49.9963,0 -49.9964,0 -0.2475,16.7282 -0.2475,16.7282 -4.4551,-3.0387 c -6.3993,-4.3646 -10.2001,-7.5874 -16.1233,-13.6715 -5.6022,-5.7543 -10.9311,-12.5882 -14.3016,-18.3406 -2.2873,-3.9039 -4.7509,-6.4044 -8.0402,-8.1606 l -2.1261,-1.1353 -44.0562,-0.1439 c -44.3124,-0.1447 -48.5426,-0.018 -54.9172,1.6421 -11.748202,3.0601 -25.652102,15.5761 -31.174102,28.0624 -5.103196,11.539 -5.200696,25.0271 -0.2598,35.924 3.7711,8.317 11.3884,15.7588 21.2568,20.7672 12.282802,6.2337 38.793802,10.1886 47.204302,7.0418 5.7905,-2.1665 9.7155,-7.4348 10.1048,-13.5631 0.1222,-1.9241 -0.028,-4.4244 -0.3344,-5.5563 -1.2001,-4.4371 -5.8131,-9.3933 -9.8372,-10.5689 -1.014,-0.2963 -4.9623,-0.7558 -8.7739,-1.0212 -15.9931,-1.1135 -25.5947,-4.0389 -29.6333,-9.0288 -2.5012,-3.0902 -2.2405,-9.2814 0.5573,-13.2339 0.8384,-1.1844 0.8665,-1.0457 1.1077,5.4674 l 0.2475,6.6827 5.4452,1.8283 c 2.9948,1.0055 7.2272,2.1804 9.4052,2.6107 4.4358,0.8764 10.7906,1.7116 11.079,1.456 0.1038,-0.092 -1.3014,-2.5046 -3.1225,-5.3613 -2.6875,-4.2157 -3.2177,-5.369 -2.8146,-6.1222 1.3771,-2.5731 1.6785,-2.3515 6.5321,4.8036 l 4.6615,6.8719 2.475,0.3204 c 1.3613,0.1763 3.7447,0.8378 5.2964,1.47 l 2.8214,1.1495 0.262,-1.2959 c 0.1441,-0.7127 0.9375,-6.2918 1.763,-12.3979 0.8256,-6.1061 1.5546,-11.1555 1.62,-11.221 0.065,-0.065 1.3366,0.197 2.8249,0.5831 3.4718,0.9005 7.145,0.8924 10.185,-0.022 1.3238,-0.3984 2.5084,-0.6229 2.6326,-0.4987 0.1241,0.1241 2.1871,14.428 4.5845,31.7864 2.3973,17.3585 4.3666,31.6165 4.3762,31.6846 0.01,0.068 8.3709,0.1237 18.5806,0.1237 l 18.563,0 0,-21.5331 z m 82.4197,-31.8644 c -3.3807,-2.0997 -4.7026,-4.5339 -4.7026,-8.6598 0,-5.0621 3.8167,-8.7296 9.0846,-8.7296 3.6364,0 5.9548,1.1639 7.7665,3.8989 1.2069,1.8221 1.4644,2.7241 1.4644,5.1287 0,1.6048 -0.25,3.4043 -0.5555,3.999 -0.8212,1.5984 -2.9719,3.7955 -4.4938,4.5905 -1.961,1.0245 -6.7526,0.8971 -8.5636,-0.2277 z m -140.5838,-15.5751 c -2.6372,-0.8762 -5.0445,-2.1562 -6.1672,-3.2788 -0.8924,-0.8925 -0.8678,-1.1124 0.9236,-8.2652 l 1.8404,-7.3483 7.5978,0 7.5977,0 1.9325,7.3506 c 2.2245,8.4609 2.2752,8.2337 -2.3459,10.4946 -3.1436,1.5381 -8.436,2.0251 -11.3789,1.0471 z m 6.6827,67.0169 c 0,-2.3686 -1.4342,-6.177 -3.4052,-9.0426 -1.2582,-1.8291 -2.3993,-3.3327 -2.5359,-3.3414 -0.1366,-0.01 -0.7638,0.9559 -1.3938,2.1434 l -1.1454,2.1592 1.5336,2.4197 c 0.8435,1.3309 2.5845,3.2435 3.8689,4.2503 2.433,1.9072 3.0778,2.2028 3.0778,1.4114 z m 188.6002,-5.717 0,-5.6927 -50.2439,0 -50.2439,0 0,5.6927 0,5.6927 50.2439,0 50.2439,0 z m -96.5277,0 0,-2.2276 2.2276,0 2.2275,0 0,2.2276 0,2.2276 -2.2275,0 -2.2276,0 z m 7.9202,0 0,-2.2276 2.2276,0 2.2275,0 0,2.2276 0,2.2276 -2.2275,0 -2.2276,0 z m 7.9202,0 0,-2.2276 2.4751,0 2.4751,0 0,2.2276 0,2.2276 -2.4751,0 -2.4751,0 z m 36.631,0 0,-2.2276 20.0481,0 20.048,0 0,2.2276 0,2.2276 -20.048,0 -20.0481,0 z m -136.1287,-107.437 c 8.155,-2.1748 13.8381,-5.3153 19.8058,-10.945 16.2441,-15.3238 18.6855,-40.1486 5.7333,-58.2993 -3.0778,-4.3132 -9.3545,-10.0485 -13.7019,-12.52 -2.0182,-1.1474 -6.1198,-2.8995 -9.1146,-3.8936 -9.1021,-3.0213 -19.6821,-2.9661 -27.9597,0.146 -11.8433,4.4525 -20.2754,11.945 -25.5068,22.6642 -3.4725,7.1154 -4.4401,11.5252 -4.3991,20.0481 0.03,6.3031 0.1958,7.7082 1.3576,11.5321 4.2518,13.9945 14.2235,24.885 27.1139,29.6124 5.7991,2.1267 9.6913,2.8115 16.2762,2.8639 4.625,0.037 6.5746,-0.1899 10.3953,-1.2088 z"
       style="fill:#e12d0e;fill-opacity:1"
       sodipodi:nodetypes="ssssscccsssssssscccssssssccssscccccsscccsscccccsssccccssccccsscscsssscsccccsscssssscssscccccccccsssscccsssssscccccccccsssscssssssssssssscsssssscsscsscsscscsccsssssssssssscccssssscscssscccccccccccccccccccccccccccccccccccccccccccccssssssssssss" />
  </g>
</svg>
